<svg id="ic_menu_marketplace_on" xmlns="http://www.w3.org/2000/svg" xmlns:xlink="http://www.w3.org/1999/xlink" width="40" height="40" viewBox="0 0 40 40">
  <defs>
    <clipPath id="clip-path">
      <rect id="사각형_105" data-name="사각형 105" width="40" height="40" fill="none"/>
    </clipPath>
  </defs>
  <g id="그룹_102" data-name="그룹 102" clip-path="url(#clip-path)">
    <path id="패스_78" data-name="패스 78" d="M31.5,18.336a.779.779,0,0,0-.013-.144l-1.074-5.671a.867.867,0,0,0-.033-.121,1.951,1.951,0,0,0-1.911-1.286q-2.561-.008-5.123,0H19.613c-1.747,0-3.526,0-5.238,0a1.948,1.948,0,0,0-1.91,1.286.7.7,0,0,0-.034.119L11.337,18.19a.715.715,0,0,0-.014.146,2.843,2.843,0,0,0,.684,1.942v6.486a4.636,4.636,0,0,0,4.353,4.865h10.1a4.636,4.636,0,0,0,4.353-4.865v-6.5a2.81,2.81,0,0,0,.684-1.927" fill="#c4dcff"/>
    <path id="패스_79" data-name="패스 79" d="M22.573,32.629H17.427a.946.946,0,0,1-.945-.945V25.9a2.207,2.207,0,0,1,2.2-2.2h2.629a2.206,2.206,0,0,1,2.2,2.2v5.784a.945.945,0,0,1-.945.945m-4.2-1.89h3.256V25.9a.314.314,0,0,0-.313-.314H18.686a.315.315,0,0,0-.314.314Z" fill="#222"/>
    <path id="패스_80" data-name="패스 80" d="M26.259,32.629H13.742c-2.975,0-5.395-2.686-5.395-5.988V18.33a.945.945,0,0,1,1.89,0v8.311c0,2.26,1.572,4.1,3.5,4.1H26.259c1.932,0,3.5-1.838,3.5-4.1V18.33a.945.945,0,1,1,1.89,0v8.311c0,3.3-2.42,5.988-5.394,5.988" fill="#222"/>
    <path id="패스_81" data-name="패스 81" d="M28.715,19.905a4.093,4.093,0,0,1-2.955-1.14,4.237,4.237,0,0,1-5.784,0,4.237,4.237,0,0,1-5.784,0,4.085,4.085,0,0,1-2.829,1.14A3.568,3.568,0,0,1,7.5,16.266a.98.98,0,0,1,.017-.18L8.874,9.1a.943.943,0,0,1,.041-.147,2.416,2.416,0,0,1,2.368-1.582c2.12-.006,4.325-.005,6.489,0H22.4q3.174,0,6.348,0a2.415,2.415,0,0,1,2.367,1.583.967.967,0,0,1,.041.149l1.331,6.981a.948.948,0,0,1,.016.177,3.619,3.619,0,0,1-3.785,3.639m-2.943-4.584a.945.945,0,0,1,.945.945c0,1.522,1.252,1.749,2,1.749a1.743,1.743,0,0,0,1.894-1.667l-1.3-6.8c-.054-.122-.175-.281-.574-.282-2.114-.007-4.227-.005-6.342-.005H17.77c-2.162,0-4.365,0-6.482.005-.4,0-.521.161-.576.284l-1.321,6.8a1.715,1.715,0,0,0,1.972,1.665,1.739,1.739,0,0,0,1.9-1.749.945.945,0,1,1,1.89,0c0,1.522,1.252,1.749,2,1.749a1.739,1.739,0,0,0,1.895-1.749.945.945,0,1,1,1.89,0c0,1.522,1.252,1.749,2,1.749a1.739,1.739,0,0,0,1.9-1.749.945.945,0,0,1,.945-.945" fill="#222"/>
  </g>
</svg>
