<svg id="ic_menu_gallery_on" xmlns="http://www.w3.org/2000/svg" xmlns:xlink="http://www.w3.org/1999/xlink" width="40" height="40" viewBox="0 0 40 40">
  <defs>
    <clipPath id="clip-path">
      <rect id="사각형_119" data-name="사각형 119" width="40" height="40" fill="none"/>
    </clipPath>
  </defs>
  <g id="그룹_116" data-name="그룹 116" clip-path="url(#clip-path)">
    <path id="패스_92" data-name="패스 92" d="M27.06,32.133H16.275a5,5,0,0,1-5-5V16.348a5,5,0,0,1,5-5H27.06a5,5,0,0,1,5,5V27.133a5,5,0,0,1-5,5" fill="#c4dcff"/>
    <path id="패스_93" data-name="패스 93" d="M31.493,28.059a.933.933,0,0,1-.676-.288l-7.2-7.494-6.165,5.84a.936.936,0,0,1-1.289,0l-2.618-2.48L9.152,27.8a.937.937,0,1,1-1.289-1.361L12.9,21.665a.938.938,0,0,1,1.289,0l2.619,2.48,6.2-5.869a.936.936,0,0,1,1.321.031l7.84,8.165a.937.937,0,0,1-.676,1.587" fill="#222"/>
    <path id="패스_94" data-name="패스 94" d="M27.5,9.375A3.133,3.133,0,0,1,30.625,12.5V27.5A3.133,3.133,0,0,1,27.5,30.625H12.5A3.132,3.132,0,0,1,9.375,27.5V12.5A3.131,3.131,0,0,1,12.5,9.375Zm0-1.875H12.5a5,5,0,0,0-5,5V27.5a5,5,0,0,0,5,5H27.5a5,5,0,0,0,5-5V12.5a5,5,0,0,0-5-5" fill="#222"/>
    <path id="패스_95" data-name="패스 95" d="M17.679,15.528A2.277,2.277,0,1,1,15.4,13.251a2.277,2.277,0,0,1,2.277,2.277" fill="#222"/>
  </g>
</svg>
