<svg id="ic_menu_camera_off" xmlns="http://www.w3.org/2000/svg" xmlns:xlink="http://www.w3.org/1999/xlink" width="40" height="40" viewBox="0 0 40 40">
  <defs>
    <clipPath id="clip-path">
      <rect id="사각형_106" data-name="사각형 106" width="40" height="40" fill="none"/>
    </clipPath>
  </defs>
  <g id="그룹_104" data-name="그룹 104" clip-path="url(#clip-path)">
    <path id="패스_82" data-name="패스 82" d="M21.846,10.637a3.13,3.13,0,0,1,3,2.276A2.174,2.174,0,0,0,26.932,14.5a3.421,3.421,0,0,1,3.416,3.416v8.034a3.421,3.421,0,0,1-3.416,3.416H12.514A3.42,3.42,0,0,1,9.1,25.947V17.914A3.42,3.42,0,0,1,12.514,14.5,2.174,2.174,0,0,0,14.6,12.913a3.13,3.13,0,0,1,3-2.276Zm0-1.875H17.6a5,5,0,0,0-4.807,3.644.292.292,0,0,1-.279.216,5.291,5.291,0,0,0-5.291,5.292v8.033a5.291,5.291,0,0,0,5.291,5.291H26.932a5.291,5.291,0,0,0,5.291-5.291V17.913a5.291,5.291,0,0,0-5.291-5.291.291.291,0,0,1-.279-.216,5,5,0,0,0-4.807-3.644" fill="#aaa"/>
    <path id="패스_83" data-name="패스 83" d="M19.76,18.786a3.126,3.126,0,1,1-3.125,3.125,3.129,3.129,0,0,1,3.125-3.125m0-1.875a5,5,0,1,0,5,5,5,5,0,0,0-5-5" fill="#aaa"/>
  </g>
</svg>
