<svg xmlns="http://www.w3.org/2000/svg" xmlns:xlink="http://www.w3.org/1999/xlink" width="90" height="90" viewBox="0 0 90 90">
  <defs>
    <clipPath id="clip-path">
      <rect id="사각형_104" data-name="사각형 104" width="43.329" height="60" fill="#5393fc"/>
    </clipPath>
  </defs>
  <g id="img_tripchain_loading" transform="translate(-295.335 -189)">
    <rect id="사각형_123" data-name="사각형 123" width="90" height="90" transform="translate(295.335 189)" fill="none"/>
    <g id="그룹_96" data-name="그룹 96" transform="translate(318.671 204)">
      <g id="그룹_95" data-name="그룹 95" clip-path="url(#clip-path)">
        <path id="패스_75" data-name="패스 75" d="M30.8,8.975h-.621V5.9A5.756,5.756,0,0,0,24.588,0H18.741a5.756,5.756,0,0,0-5.588,5.9V8.975h-.621A12.646,12.646,0,0,0,0,21.7V44.216A12.751,12.751,0,0,0,7.35,55.794a4.426,4.426,0,0,0,8.629,1.153h3.23a2.321,2.321,0,1,0,0-4.642H12.533a8,8,0,0,1-7.891-8.089V21.7a8,8,0,0,1,7.891-8.087H30.8A8,8,0,0,1,38.687,21.7V44.216A8,8,0,0,1,30.8,52.3a2.321,2.321,0,1,0,0,4.642A12.648,12.648,0,0,0,43.329,44.216V21.7A12.646,12.646,0,0,0,30.8,8.975M17.8,5.9c0-.681.433-1.257.946-1.257h5.846c.512,0,.946.576.946,1.257V8.975H17.8Z" transform="translate(0 -0.001)" fill="#5393fc"/>
        <path id="패스_76" data-name="패스 76" d="M8.5,16.493v11.45a2.321,2.321,0,0,0,4.642,0V16.493a2.321,2.321,0,0,0-4.642,0" transform="translate(4.653 7.758)" fill="#5393fc"/>
        <path id="패스_77" data-name="패스 77" d="M21.142,27.944V16.494a2.321,2.321,0,1,0-4.642,0v11.45a2.321,2.321,0,1,0,4.642,0" transform="translate(9.033 7.759)" fill="#5393fc"/>
      </g>
    </g>
  </g>
</svg>
