<svg id="lg_tripchain_mobile" xmlns="http://www.w3.org/2000/svg" xmlns:xlink="http://www.w3.org/1999/xlink" width="40" height="40" viewBox="0 0 40 40">
  <defs>
    <clipPath id="clip-path">
      <rect id="사각형_62" data-name="사각형 62" width="40" height="40" fill="none"/>
    </clipPath>
  </defs>
  <g id="그룹_9" data-name="그룹 9" clip-path="url(#clip-path)">
    <path id="패스_18" data-name="패스 18" d="M32.514,40H21.486a7.5,7.5,0,0,1,0-15,1.324,1.324,0,0,1,0,2.647,4.853,4.853,0,0,0,0,9.706H32.514a4.853,4.853,0,0,0,0-9.706H28.483a1.324,1.324,0,0,1,0-2.647h4.031a7.5,7.5,0,0,1,0,15" fill="#e0e0e0"/>
    <path id="패스_19" data-name="패스 19" d="M18.48,5.384h-.372V3.539A3.454,3.454,0,0,0,14.753,0H11.248A3.455,3.455,0,0,0,7.892,3.539V5.384H7.521A7.589,7.589,0,0,0,0,13.022V26.529a7.65,7.65,0,0,0,4.411,6.946,2.656,2.656,0,0,0,5.179.691h1.936a1.393,1.393,0,1,0,0-2.785H7.521a4.8,4.8,0,0,1-4.735-4.852V13.022A4.8,4.8,0,0,1,7.521,8.17H18.48a4.8,4.8,0,0,1,4.735,4.852V26.529a4.8,4.8,0,0,1-4.735,4.852,1.393,1.393,0,1,0,0,2.785A7.588,7.588,0,0,0,26,26.529V13.022a7.589,7.589,0,0,0-7.52-7.638m-7.8-1.845c0-.408.26-.754.569-.754h3.505c.309,0,.569.346.569.754V5.384H10.679Z" fill="#5393fc"/>
  </g>
</svg>
