<svg xmlns="http://www.w3.org/2000/svg" xmlns:xlink="http://www.w3.org/1999/xlink" width="162" height="25" viewBox="0 0 162 25">
  <defs>
    <clipPath id="clip-path">
      <rect id="사각형_62" data-name="사각형 62" width="25" height="25" fill="none"/>
    </clipPath>
    <clipPath id="clip-path-2">
      <rect id="사각형_85" data-name="사각형 85" width="127" height="25" transform="translate(0.011)" fill="#fff"/>
    </clipPath>
  </defs>
  <g id="그룹_47" data-name="그룹 47" transform="translate(-299 -55)">
    <g id="그룹_9" data-name="그룹 9" transform="translate(299 55)" clip-path="url(#clip-path)">
      <path id="패스_18" data-name="패스 18" d="M25.778,34.542H18.762a4.771,4.771,0,0,1,0-9.542.842.842,0,0,1,0,1.684,3.087,3.087,0,0,0,0,6.175h7.016a3.087,3.087,0,0,0,0-6.175H23.214a.842.842,0,0,1,0-1.684h2.564a4.771,4.771,0,0,1,0,9.542" transform="translate(-5.094 -9.096)" fill="#e0e0e0"/>
      <path id="패스_19" data-name="패스 19" d="M11.756,3.425H11.52V2.251A2.2,2.2,0,0,0,9.385,0H7.156A2.2,2.2,0,0,0,5.021,2.251V3.425H4.785A4.828,4.828,0,0,0,0,8.284v8.593A4.866,4.866,0,0,0,2.806,21.3a1.69,1.69,0,0,0,3.295.44H7.332a.886.886,0,1,0,0-1.772H4.785a3.054,3.054,0,0,1-3.012-3.087V8.284A3.054,3.054,0,0,1,4.785,5.2h6.972a3.054,3.054,0,0,1,3.012,3.087v8.593a3.054,3.054,0,0,1-3.012,3.087.886.886,0,1,0,0,1.772,4.827,4.827,0,0,0,4.784-4.858V8.284a4.828,4.828,0,0,0-4.784-4.859M6.794,2.251c0-.26.165-.48.362-.48h2.23c.2,0,.362.22.362.48V3.425H6.794Z" fill="#5393fc"/>
    </g>
    <g id="그룹_46" data-name="그룹 46" transform="translate(333.989 55)">
      <g id="그룹_45" data-name="그룹 45" clip-path="url(#clip-path-2)">
        <path id="패스_56" data-name="패스 56" d="M6.533,10.325H9.989v2.888H6.533v6.533a1.419,1.419,0,0,0,.379,1.089,1.337,1.337,0,0,0,1.113.4h2.2v2.888H6.462a4.465,4.465,0,0,1-1.42-.237A3.621,3.621,0,0,1,3.858,23.2a3.281,3.281,0,0,1-.781-1.089,3.722,3.722,0,0,1-.284-1.491V13.213H0V10.325H2.793V5.5h3.74Z" transform="translate(0 -4.833)" fill="#fff"/>
        <path id="패스_57" data-name="패스 57" d="M107.038,47.078a3.45,3.45,0,0,1,1.373-1.136,4.913,4.913,0,0,1,2.059-.4h2.935l-.592,2.888h-2.959a2.1,2.1,0,0,0-1.018.26,3.178,3.178,0,0,0-.852.734,3.935,3.935,0,0,0-.592,1.065,3.642,3.642,0,0,0-.213,1.231V59.34h-3.74v-13.8h3.267Z" transform="translate(-90.966 -40.047)" fill="#fff"/>
        <path id="패스_58" data-name="패스 58" d="M209.248,3.6h-3.74V0h3.74Zm0,15.694h-3.74V5.492h3.74Z" transform="translate(-180.724)" fill="#fff"/>
        <path id="패스_59" data-name="패스 59" d="M273.156,42.086l.544,1.278a8.2,8.2,0,0,1,2.344-1.326,8.987,8.987,0,0,1,2.912-.426,6.9,6.9,0,0,1,2.651.544,7.861,7.861,0,0,1,2.272,1.539,7.4,7.4,0,0,1,2.178,5.326,7.226,7.226,0,0,1-.568,2.888,7.994,7.994,0,0,1-1.562,2.32,7.749,7.749,0,0,1-2.249,1.539,7.33,7.33,0,0,1-2.746.592,8.24,8.24,0,0,1-2.864-.426,7.592,7.592,0,0,1-2.438-1.42v7.528h-3.74V42.086ZM278.2,53.473a4.629,4.629,0,0,0,1.61-.308,3.569,3.569,0,0,0,1.326-.9,4.539,4.539,0,0,0,.876-1.4,5.588,5.588,0,0,0,.308-1.846,5.881,5.881,0,0,0-.308-1.894,5.326,5.326,0,0,0-.876-1.42,4.176,4.176,0,0,0-1.326-.876,4.631,4.631,0,0,0-1.61-.308,4.528,4.528,0,0,0-1.61.308,3.613,3.613,0,0,0-1.3.876,3.981,3.981,0,0,0-.876,1.42,4.822,4.822,0,0,0-.331,1.894,4.586,4.586,0,0,0,.331,1.846,3.516,3.516,0,0,0,.876,1.4,3.148,3.148,0,0,0,1.3.9,4.526,4.526,0,0,0,1.61.308" transform="translate(-237.341 -36.595)" fill="#fff"/>
        <path id="패스_60" data-name="패스 60" d="M432.774,42.539a4.358,4.358,0,0,0-1.8.355,4.09,4.09,0,0,0-1.42.971,4.394,4.394,0,0,0-.923,1.491,5.108,5.108,0,0,0-.331,1.917,4.752,4.752,0,0,0,.355,1.846,4.112,4.112,0,0,0,.947,1.491,3.9,3.9,0,0,0,1.42,1.018,4.211,4.211,0,0,0,1.752.355,4.947,4.947,0,0,0,2.414-.615,4.722,4.722,0,0,0,1.728-1.752l2.272,1.989A8.53,8.53,0,0,1,436.467,54a9.3,9.3,0,0,1-7.078.331,7.759,7.759,0,0,1-2.509-1.562,7,7,0,0,1-1.7-2.415,7.222,7.222,0,0,1-.615-3.077,7.372,7.372,0,0,1,.615-3.077,7.1,7.1,0,0,1,1.657-2.414,7.459,7.459,0,0,1,2.486-1.586,8.836,8.836,0,0,1,3.125-.544,7.809,7.809,0,0,1,6.77,3.267l-2.273,1.941a4.335,4.335,0,0,0-1.728-1.728,5.449,5.449,0,0,0-2.438-.592" transform="translate(-373.36 -34.869)" fill="#fff"/>
        <path id="패스_61" data-name="패스 61" d="M568.642,11.51a5.792,5.792,0,0,1,2.083-1.231,7.348,7.348,0,0,1,2.438-.426,7.522,7.522,0,0,1,2.438.4,6.757,6.757,0,0,1,1.988,1.113,5.7,5.7,0,0,1,1.349,1.752,5.691,5.691,0,0,1,.473,2.3v8.711h-3.74V16.694a4.371,4.371,0,0,0-.9-3.03,3.3,3.3,0,0,0-2.462-.923,3.415,3.415,0,0,0-2.344.9,4.312,4.312,0,0,0-1.326,2.533v7.954H564.9V5.5h3.74Z" transform="translate(-496.777 -4.834)" fill="#fff"/>
        <path id="패스_62" data-name="패스 62" d="M716.773,42.086h3.267v13.8h-3.172l-.45-1.823a5.972,5.972,0,0,1-1.041.994,9.006,9.006,0,0,1-1.326.734,11.141,11.141,0,0,1-1.515.45A8.591,8.591,0,0,1,711,56.36a7.019,7.019,0,0,1-2.722-.592A7.27,7.27,0,0,1,706,54.23a7.251,7.251,0,0,1-2.13-5.208A7.4,7.4,0,0,1,706.05,43.7a7.86,7.86,0,0,1,2.272-1.539,6.81,6.81,0,0,1,2.651-.544,8.216,8.216,0,0,1,3.1.568,5.919,5.919,0,0,1,2.272,1.61Zm-5.042,11.386a4.629,4.629,0,0,0,1.61-.308,3.569,3.569,0,0,0,1.326-.9,4.538,4.538,0,0,0,.876-1.4,5.587,5.587,0,0,0,.308-1.846,5.88,5.88,0,0,0-.308-1.894,5.324,5.324,0,0,0-.876-1.42,4.176,4.176,0,0,0-1.326-.876,4.632,4.632,0,0,0-1.61-.308,4.528,4.528,0,0,0-1.61.308,3.614,3.614,0,0,0-1.3.876,3.981,3.981,0,0,0-.876,1.42,4.823,4.823,0,0,0-.331,1.894,4.587,4.587,0,0,0,.331,1.846,3.516,3.516,0,0,0,.876,1.4,3.149,3.149,0,0,0,1.3.9,4.526,4.526,0,0,0,1.61.308" transform="translate(-618.988 -36.595)" fill="#fff"/>
        <path id="패스_63" data-name="패스 63" d="M874.06,3.6h-3.74V0h3.74Zm0,15.694h-3.74V5.492h3.74Z" transform="translate(-765.363)" fill="#fff"/>
        <path id="패스_64" data-name="패스 64" d="M938.181,43.531a4.036,4.036,0,0,1,.947-.8,7.938,7.938,0,0,1,1.184-.615,10.822,10.822,0,0,1,1.326-.379,8.612,8.612,0,0,1,1.326-.118,7.524,7.524,0,0,1,2.438.4,6.757,6.757,0,0,1,1.988,1.113,5.071,5.071,0,0,1,1.823,4.048v8.711h-3.74V48.455a4.371,4.371,0,0,0-.9-3.03,3.3,3.3,0,0,0-2.462-.923,3.415,3.415,0,0,0-2.344.9,4.311,4.311,0,0,0-1.326,2.533v7.954H934.7v-13.8h3.172Z" transform="translate(-821.98 -36.596)" fill="#fff"/>
      </g>
    </g>
  </g>
</svg>
